<svg width="37" height="43" viewBox="0 0 37 43" fill="none" xmlns="http://www.w3.org/2000/svg">
<g id="Location">
<path id="Fill 1" fill-rule="evenodd" clip-rule="evenodd" d="M18.127 14.646C16.032 14.646 14.3278 16.3502 14.3278 18.4474C14.3278 20.5424 16.032 22.2444 18.127 22.2444C20.2219 22.2444 21.9262 20.5424 21.9262 18.4474C21.9262 16.3502 20.2219 14.646 18.127 14.646ZM18.1269 25.5008C14.2366 25.5008 11.0713 22.3377 11.0713 18.4474C11.0713 14.5548 14.2366 11.3895 18.1269 11.3895C22.0173 11.3895 25.1826 14.5548 25.1826 18.4474C25.1826 22.3377 22.0173 25.5008 18.1269 25.5008Z" fill="white"/>
<g id="Group 5">
<mask id="mask0_330_7" style="mask-type:luminance" maskUnits="userSpaceOnUse" x="0" y="0" width="37" height="43">
<path id="Clip 4" fill-rule="evenodd" clip-rule="evenodd" d="M0.215332 0.534668H36.0353V42.8686H0.215332V0.534668Z" fill="white"/>
</mask>
<g mask="url(#mask0_330_7)">
<path id="Fill 3" fill-rule="evenodd" clip-rule="evenodd" d="M18.1248 3.79127C10.0445 3.79127 3.47078 10.4279 3.47078 18.5821C3.47078 28.9572 15.6803 39.0652 18.1248 39.6036C20.5694 39.0631 32.7789 28.955 32.7789 18.5821C32.7789 10.4279 26.2052 3.79127 18.1248 3.79127ZM18.1249 42.8686C14.2301 42.8686 0.214355 30.8154 0.214355 18.582C0.214355 8.63022 8.24912 0.534668 18.1249 0.534668C28.0006 0.534668 36.0354 8.63022 36.0354 18.582C36.0354 30.8154 22.0196 42.8686 18.1249 42.8686Z" fill="white"/>
</g>
</g>
</g>
</svg>
