<svg width="44" height="47" viewBox="0 0 44 47" fill="none" xmlns="http://www.w3.org/2000/svg">
<g id="Calendar">
<path id="Fill 1" fill-rule="evenodd" clip-rule="evenodd" d="M41.3974 19.3229H2.70196C1.80318 19.3229 1.07373 18.5934 1.07373 17.6946C1.07373 16.7959 1.80318 16.0664 2.70196 16.0664H41.3974C42.2961 16.0664 43.0256 16.7959 43.0256 17.6946C43.0256 18.5934 42.2961 19.3229 41.3974 19.3229Z" fill="white"/>
<path id="Fill 3" fill-rule="evenodd" clip-rule="evenodd" d="M31.7033 27.8014C30.8045 27.8014 30.0664 27.0719 30.0664 26.1732C30.0664 25.2744 30.785 24.5449 31.6838 24.5449H31.7033C32.6021 24.5449 33.3315 25.2744 33.3315 26.1732C33.3315 27.0719 32.6021 27.8014 31.7033 27.8014Z" fill="white"/>
<path id="Fill 5" fill-rule="evenodd" clip-rule="evenodd" d="M22.07 27.8014C21.1712 27.8014 20.4331 27.0719 20.4331 26.1732C20.4331 25.2744 21.1517 24.5449 22.0505 24.5449H22.07C22.9688 24.5449 23.6982 25.2744 23.6982 26.1732C23.6982 27.0719 22.9688 27.8014 22.07 27.8014Z" fill="white"/>
<path id="Fill 7" fill-rule="evenodd" clip-rule="evenodd" d="M12.4159 27.8014C11.5172 27.8014 10.7769 27.0719 10.7769 26.1732C10.7769 25.2744 11.4976 24.5449 12.3964 24.5449H12.4159C13.3147 24.5449 14.0442 25.2744 14.0442 26.1732C14.0442 27.0719 13.3147 27.8014 12.4159 27.8014Z" fill="white"/>
<path id="Fill 9" fill-rule="evenodd" clip-rule="evenodd" d="M31.7033 36.2394C30.8045 36.2394 30.0664 35.5099 30.0664 34.6111C30.0664 33.7124 30.785 32.9829 31.6838 32.9829H31.7033C32.6021 32.9829 33.3315 33.7124 33.3315 34.6111C33.3315 35.5099 32.6021 36.2394 31.7033 36.2394Z" fill="white"/>
<path id="Fill 11" fill-rule="evenodd" clip-rule="evenodd" d="M22.07 36.2394C21.1712 36.2394 20.4331 35.5099 20.4331 34.6111C20.4331 33.7124 21.1517 32.9829 22.0505 32.9829H22.07C22.9688 32.9829 23.6982 33.7124 23.6982 34.6111C23.6982 35.5099 22.9688 36.2394 22.07 36.2394Z" fill="white"/>
<path id="Fill 13" fill-rule="evenodd" clip-rule="evenodd" d="M12.4159 36.2394C11.5172 36.2394 10.7769 35.5099 10.7769 34.6111C10.7769 33.7124 11.4976 32.9829 12.3964 32.9829H12.4159C13.3147 32.9829 14.0442 33.7124 14.0442 34.6111C14.0442 35.5099 13.3147 36.2394 12.4159 36.2394Z" fill="white"/>
<path id="Fill 15" fill-rule="evenodd" clip-rule="evenodd" d="M30.8187 10.3931C29.9199 10.3931 29.1904 9.66362 29.1904 8.76484V1.62017C29.1904 0.72139 29.9199 -0.00805664 30.8187 -0.00805664C31.7174 -0.00805664 32.4469 0.72139 32.4469 1.62017V8.76484C32.4469 9.66362 31.7174 10.3931 30.8187 10.3931Z" fill="white"/>
<path id="Fill 17" fill-rule="evenodd" clip-rule="evenodd" d="M13.2806 10.3931C12.3818 10.3931 11.6523 9.66362 11.6523 8.76484V1.62017C11.6523 0.72139 12.3818 -0.00805664 13.2806 -0.00805664C14.1794 -0.00805664 14.9088 0.72139 14.9088 1.62017V8.76484C14.9088 9.66362 14.1794 10.3931 13.2806 10.3931Z" fill="white"/>
<g id="Group 21">
<mask id="mask0_330_184" style="mask-type:luminance" maskUnits="userSpaceOnUse" x="0" y="3" width="44" height="44">
<path id="Clip 20" fill-rule="evenodd" clip-rule="evenodd" d="M0.873047 3.42017H43.207V46.6679H0.873047V3.42017Z" fill="white"/>
</mask>
<g mask="url(#mask0_330_184)">
<path id="Fill 19" fill-rule="evenodd" clip-rule="evenodd" d="M12.859 6.67642C7.22968 6.67642 4.12953 9.67888 4.12953 15.1302V34.7753C4.12953 40.346 7.22968 43.4114 12.859 43.4114H31.2211C36.8504 43.4114 39.9506 40.4025 39.9506 34.9403V15.1302C39.9592 12.449 39.2385 10.3649 37.8078 8.93206C36.3359 7.4558 34.0672 6.67642 31.2406 6.67642H12.859ZM31.2211 46.6681H12.859C5.46682 46.6681 0.873047 42.1112 0.873047 34.7755V15.1304C0.873047 7.90539 5.46682 3.42017 12.859 3.42017H31.2406C34.9508 3.42017 38.0184 4.5317 40.1134 6.63103C42.1476 8.67392 43.2178 11.6112 43.207 15.1347V34.9405C43.207 42.1742 38.6132 46.6681 31.2211 46.6681Z" fill="white"/>
</g>
</g>
</g>
</svg>
