<svg width="45" height="45" viewBox="0 0 45 45" fill="none" xmlns="http://www.w3.org/2000/svg">
<g id="Time Circle">
<path id="Fill 1" fill-rule="evenodd" clip-rule="evenodd" d="M22.5828 4.04799C12.4074 4.04799 4.12953 12.3259 4.12953 22.5012C4.12953 32.6766 12.4074 40.9545 22.5828 40.9545C32.7581 40.9545 41.0361 32.6766 41.0361 22.5012C41.0361 12.3259 32.7581 4.04799 22.5828 4.04799ZM22.5828 44.2108C10.612 44.2108 0.873047 34.4718 0.873047 22.5011C0.873047 10.5304 10.612 0.791382 22.5828 0.791382C34.5535 0.791382 44.2925 10.5304 44.2925 22.5011C44.2925 34.4718 34.5535 44.2108 22.5828 44.2108Z" fill="white"/>
<path id="Fill 3" fill-rule="evenodd" clip-rule="evenodd" d="M30.0315 30.5174C29.7471 30.5174 29.4606 30.4435 29.1979 30.2894L21.0133 25.4069C20.5227 25.1116 20.2188 24.5798 20.2188 24.0066V13.4817C20.2188 12.583 20.9482 11.8535 21.847 11.8535C22.7479 11.8535 23.4752 12.583 23.4752 13.4817V23.0818L30.8674 27.4889C31.6381 27.9513 31.8921 28.9499 31.4318 29.7228C31.1257 30.233 30.5851 30.5174 30.0315 30.5174Z" fill="white"/>
</g>
</svg>
